<svg xmlns="http://www.w3.org/2000/svg" width="240" height="135" viewBox="0 0 240 135" role="img" aria-labelledby="title desc">
  <title id="title">AI Companion clock screen</title>
  <desc id="desc">Catppuccin-styled digital clock shown on the M5StickS3.</desc>
  <rect width="240" height="135" rx="8" fill="#1e2030"/>
  <rect x="10" y="14" width="220" height="91" rx="12" fill="#181926" stroke="#c6a0f6" stroke-width="2"/>
  <g fill="#f5bde6"><path d="M30 26l2 5 5 2-5 2-2 5-2-5-5-2 5-2z"/><path d="M205 34l2 5 5 2-5 2-2 5-2-5-5-2 5-2z"/></g>
  <g fill="#8aadf4" font-family="monospace" text-anchor="middle">
    <text x="120" y="70" font-size="38" font-weight="700" letter-spacing="2">10:09</text>
    <text x="120" y="91" font-size="12">SAT 20 SEP</text>
  </g>
  <g fill="#b8c0e0" font-family="sans-serif" font-size="10"><text x="18" y="124">CLOCK</text><text x="199" y="124">82%</text></g>
  <rect x="221" y="117" width="12" height="7" rx="2" fill="none" stroke="#a6da95"/><rect x="233" y="119" width="2" height="3" fill="#a6da95"/><rect x="223" y="119" width="7" height="3" fill="#a6da95"/>
</svg>
